<svg xmlns="http://www.w3.org/2000/svg" viewBox="0 0 800 500" width="800" height="500" role="img" aria-label="Research findings becoming a professional point of view post">
  <defs>
    <linearGradient id="bg" x1="0" y1="0" x2="1" y2="1" gradientTransform="rotate(20 .5 .5)">
      <stop offset="0" stop-color="#141a20"/>
      <stop offset="1" stop-color="#090c0f"/>
    </linearGradient>
    <radialGradient id="focus" cx=".5" cy=".5" r=".5">
      <stop offset="0" stop-color="#80cde9" stop-opacity=".18"/>
      <stop offset=".45" stop-color="#80cde9" stop-opacity=".055"/>
      <stop offset="1" stop-color="#80cde9" stop-opacity="0"/>
    </radialGradient>
    <linearGradient id="accentFade" x1="0" y1="0" x2="1" y2="0">
      <stop offset="0" stop-color="#80cde9" stop-opacity="0"/>
      <stop offset=".5" stop-color="#80cde9" stop-opacity=".8"/>
      <stop offset="1" stop-color="#80cde9" stop-opacity="0"/>
    </linearGradient>
    <filter id="softGlow" x="-80%" y="-80%" width="260%" height="260%">
      <feGaussianBlur stdDeviation="12"/>
    </filter>
  </defs>
  <rect width="800" height="500" fill="url(#bg)"/>
  <g stroke="#cbe0e8" stroke-opacity=".045" stroke-width="1">
    <line x1="0" y1="125" x2="800" y2="125"/>
    <line x1="0" y1="250" x2="800" y2="250"/>
    <line x1="0" y1="375" x2="800" y2="375"/>
  </g>
  <ellipse cx="420" cy="250" rx="170" ry="150" fill="url(#focus)" filter="url(#softGlow)"/>
  <g><g><circle cx="182" cy="192" r="54" fill="#cbe0e8" fill-opacity=".035" stroke="#80cde9" stroke-opacity=".64" stroke-width="1.8"/><line x1="220.88" y1="230.88" x2="260.3" y2="270.3" stroke="#80cde9" stroke-opacity="0.7" stroke-width="3" stroke-linecap="round"/></g>
      <circle cx="122" cy="322" r="12" fill="#cbe0e8" fill-opacity=".16" stroke="#cbe0e8" stroke-opacity=".56" stroke-width="1.5"/><circle cx="206" cy="344" r="12" fill="#cbe0e8" fill-opacity=".16" stroke="#cbe0e8" stroke-opacity=".56" stroke-width="1.5"/><circle cx="270" cy="292" r="12" fill="#cbe0e8" fill-opacity=".16" stroke="#cbe0e8" stroke-opacity=".56" stroke-width="1.5"/>
      <line x1="152" y1="226" x2="122" y2="310" stroke="#cbe0e8" stroke-opacity="0.28" stroke-width="1.5" stroke-linecap="round"/><line x1="196" y1="244" x2="206" y2="332" stroke="#cbe0e8" stroke-opacity="0.28" stroke-width="1.5" stroke-linecap="round"/><line x1="224" y1="228" x2="270" y2="280" stroke="#80cde9" stroke-opacity="0.44" stroke-width="1.7" stroke-linecap="round"/>
      <path d="M238 192 C312 192 320 236 378 236" fill="none" stroke="#80cde9" stroke-opacity="0.56" stroke-width="2" stroke-linecap="round" stroke-linejoin="round"/><circle cx="338" cy="222" r="4" fill="#80cde9" fill-opacity="0.9"/>
      <rect x="394" y="104" width="300" height="292" rx="18" fill="#cbe0e8" fill-opacity="0.055" stroke="#cbe0e8" stroke-opacity=".30" stroke-width="1.5"/>
      <circle cx="434" cy="150" r="18" fill="#cbe0e8" fill-opacity=".13"/><path d="M418 188 C422 170 446 170 450 188" fill="none" stroke="#cbe0e8" stroke-opacity=".3"/>
      <line x1="470" y1="142" x2="646" y2="142" stroke="#cbe0e8" stroke-opacity="0.18" stroke-width="6" stroke-linecap="round"/><line x1="470" y1="162" x2="584" y2="162" stroke="#cbe0e8" stroke-opacity="0.12" stroke-width="5" stroke-linecap="round"/>
      <line x1="426" y1="224" x2="656" y2="224" stroke="#cbe0e8" stroke-opacity="0.2" stroke-width="4" stroke-linecap="round"/><line x1="426" y1="248" x2="624" y2="248" stroke="#cbe0e8" stroke-opacity="0.2" stroke-width="4" stroke-linecap="round"/><line x1="426" y1="272" x2="640" y2="272" stroke="#cbe0e8" stroke-opacity="0.2" stroke-width="4" stroke-linecap="round"/><line x1="426" y1="296" x2="598" y2="296" stroke="#cbe0e8" stroke-opacity="0.2" stroke-width="4" stroke-linecap="round"/><line x1="426" y1="320" x2="648" y2="320" stroke="#cbe0e8" stroke-opacity="0.2" stroke-width="4" stroke-linecap="round"/>
      <path d="M426 356 C470 330 512 366 558 318 C594 282 626 306 658 280" fill="none" stroke="#80cde9" stroke-opacity=".5" stroke-width="2"/>
    </g>
</svg>
