<svg xmlns="http://www.w3.org/2000/svg" viewBox="0 0 800 500" width="800" height="500" role="img" aria-label="Competitor patterns being dissected into an original social draft">
  <defs>
    <linearGradient id="bg" x1="0" y1="0" x2="1" y2="1" gradientTransform="rotate(20 .5 .5)">
      <stop offset="0" stop-color="#141a20"/>
      <stop offset="1" stop-color="#090c0f"/>
    </linearGradient>
    <radialGradient id="focus" cx=".5" cy=".5" r=".5">
      <stop offset="0" stop-color="#80cde9" stop-opacity=".18"/>
      <stop offset=".45" stop-color="#80cde9" stop-opacity=".055"/>
      <stop offset="1" stop-color="#80cde9" stop-opacity="0"/>
    </radialGradient>
    <linearGradient id="accentFade" x1="0" y1="0" x2="1" y2="0">
      <stop offset="0" stop-color="#80cde9" stop-opacity="0"/>
      <stop offset=".5" stop-color="#80cde9" stop-opacity=".8"/>
      <stop offset="1" stop-color="#80cde9" stop-opacity="0"/>
    </linearGradient>
    <filter id="softGlow" x="-80%" y="-80%" width="260%" height="260%">
      <feGaussianBlur stdDeviation="12"/>
    </filter>
  </defs>
  <rect width="800" height="500" fill="url(#bg)"/>
  <g stroke="#cbe0e8" stroke-opacity=".045" stroke-width="1">
    <line x1="0" y1="125" x2="800" y2="125"/>
    <line x1="0" y1="250" x2="800" y2="250"/>
    <line x1="0" y1="375" x2="800" y2="375"/>
  </g>
  <ellipse cx="400" cy="250" rx="170" ry="150" fill="url(#focus)" filter="url(#softGlow)"/>
  <g><g><rect x="82" y="116" width="136" height="106" rx="12" fill="#cbe0e8" fill-opacity="0.045" stroke="#cbe0e8" stroke-opacity=".30" stroke-width="1.5"/><line x1="102" y1="141" x2="176.8" y2="141" stroke="#cbe0e8" stroke-opacity="0.2" stroke-width="4" stroke-linecap="round"/><line x1="102" y1="154" x2="153.68" y2="154" stroke="#cbe0e8" stroke-opacity="0.2" stroke-width="4" stroke-linecap="round"/><line x1="102" y1="167" x2="167.28" y2="167" stroke="#cbe0e8" stroke-opacity="0.2" stroke-width="4" stroke-linecap="round"/></g><g><rect x="108" y="256" width="136" height="106" rx="12" fill="#cbe0e8" fill-opacity="0.045" stroke="#cbe0e8" stroke-opacity=".30" stroke-width="1.5"/><line x1="128" y1="281" x2="202.8" y2="281" stroke="#cbe0e8" stroke-opacity="0.2" stroke-width="4" stroke-linecap="round"/><line x1="128" y1="294" x2="179.68" y2="294" stroke="#cbe0e8" stroke-opacity="0.2" stroke-width="4" stroke-linecap="round"/><line x1="128" y1="307" x2="193.28" y2="307" stroke="#cbe0e8" stroke-opacity="0.2" stroke-width="4" stroke-linecap="round"/></g><g><rect x="246" y="146" width="136" height="106" rx="12" fill="#cbe0e8" fill-opacity="0.045" stroke="#cbe0e8" stroke-opacity=".30" stroke-width="1.5"/><line x1="266" y1="171" x2="340.8" y2="171" stroke="#cbe0e8" stroke-opacity="0.2" stroke-width="4" stroke-linecap="round"/><line x1="266" y1="184" x2="317.68" y2="184" stroke="#cbe0e8" stroke-opacity="0.2" stroke-width="4" stroke-linecap="round"/><line x1="266" y1="197" x2="331.28" y2="197" stroke="#cbe0e8" stroke-opacity="0.2" stroke-width="4" stroke-linecap="round"/></g>
      <path d="M218 168 C284 168 304 200 350 218" fill="none" stroke="#cbe0e8" stroke-opacity="0.34" stroke-width="1.5" stroke-linecap="round" stroke-linejoin="round"/><path d="M244 310 C300 302 316 274 356 260" fill="none" stroke="#cbe0e8" stroke-opacity="0.34" stroke-width="1.5" stroke-linecap="round" stroke-linejoin="round"/>
      <rect x="338" y="190" width="72" height="54" rx="10" fill="#cbe0e8" fill-opacity="0.06" stroke="#cbe0e8" stroke-opacity=".30" stroke-width="1.5"/><rect x="370" y="262" width="72" height="54" rx="10" fill="#cbe0e8" fill-opacity="0.08" stroke="#cbe0e8" stroke-opacity=".30" stroke-width="1.5"/><rect x="310" y="330" width="72" height="54" rx="10" fill="#cbe0e8" fill-opacity="0.045" stroke="#cbe0e8" stroke-opacity=".30" stroke-width="1.5"/>
      <line x1="446" y1="250" x2="512" y2="250" stroke="#80cde9" stroke-opacity="0.72" stroke-width="1.8" stroke-linecap="round"/><path d="M503 254.95 L512 250 L503 245.05" fill="none" stroke="#80cde9" stroke-opacity=".84" stroke-width="1.8" stroke-linecap="round" stroke-linejoin="round"/>
      <g><rect x="536" y="114" width="172" height="272" rx="12" fill="#cbe0e8" fill-opacity="0.08" stroke="#cbe0e8" stroke-opacity=".30" stroke-width="1.5"/><line x1="676" y1="114" x2="708" y2="146" stroke="#cbe0e8" stroke-opacity="0.28" stroke-width="1.4" stroke-linecap="round"/><line x1="676" y1="114" x2="676" y2="146" stroke="#cbe0e8" stroke-opacity="0.28" stroke-width="1.4" stroke-linecap="round"/><line x1="676" y1="146" x2="708" y2="146" stroke="#cbe0e8" stroke-opacity="0.28" stroke-width="1.4" stroke-linecap="round"/><line x1="556" y1="172" x2="655.76" y2="172" stroke="#cbe0e8" stroke-opacity="0.2" stroke-width="4" stroke-linecap="round"/><line x1="556" y1="188" x2="633.4" y2="188" stroke="#cbe0e8" stroke-opacity="0.2" stroke-width="4" stroke-linecap="round"/><line x1="556" y1="204" x2="662.64" y2="204" stroke="#cbe0e8" stroke-opacity="0.2" stroke-width="4" stroke-linecap="round"/><line x1="556" y1="220" x2="621.36" y2="220" stroke="#cbe0e8" stroke-opacity="0.2" stroke-width="4" stroke-linecap="round"/><circle cx="684" cy="362" r="7" fill="#80cde9" fill-opacity=".86"/></g>
      <path d="M568 314 C596 292 626 318 670 264" fill="none" stroke="#80cde9" stroke-opacity=".52" stroke-width="2"/>
      <circle cx="388" cy="217" r="4" fill="#80cde9" fill-opacity="0.9"/><circle cx="416" cy="289" r="4" fill="#80cde9" fill-opacity="0.7"/><circle cx="360" cy="357" r="4" fill="#80cde9" fill-opacity="0.55"/>
    </g>
</svg>
